<?xml version="1.0" encoding="utf-8"?>
<!-- Generator: Adobe Illustrator 25.3.1, SVG Export Plug-In . SVG Version: 6.00 Build 0)  -->
<svg version="1.1" id="Слой_1" xmlns="http://www.w3.org/2000/svg" xmlns:xlink="http://www.w3.org/1999/xlink" x="0px" y="0px"
     viewBox="0 0 500 500" style="enable-background:new 0 0 500 500;" xml:space="preserve">
<style type="text/css">
	.st0{fill:#FFFFFF;}
	.st1{fill:#E42320;}
</style>
    <g>
	<g>
		<g>
			<g>
				<g>
					<g>
						<path class="st0" d="M289.7,152.7c-1,1.9-1.3,3.8-1.3,5.9c-0.2,50.1-0.5,100.1-0.8,150.2c0,3.8,1,7.3,2.5,10.7
							c1.7,3.5,4.1,6.2,7.9,7.3c0.3,0,0.5,0.3,0.8,0.6c-5.6,3-11.1,6-16.7,9.2c-3.7,1.9-7.2,4-10.8,5.9c-13,7-26.2,7.3-39.6,1
							c-11.9-5.7-23.4-12.2-34.8-18.8c-27.3-15.3-54.7-30.8-81.9-46.4c-3.8-2.2-7.2-4.8-9.7-8.3c-1.9-2.7-3.2-5.6-3-9.1
							c0.6-16.2,0.3-32.3,0.3-48.5c-0.2-34.8-0.3-69.6-0.6-104.4c0-5.9,2.4-10.2,7-13.5c1.7-1.3,3.8-2.4,5.7-3.5
							c40.4-24.5,80.9-48.8,121.3-73.3c3.2-1.9,6.7-3.2,10.5-3.7c3.8-0.5,7.5,0.3,10.8,2.2c11.4,6.5,22.9,12.9,34.2,19.4
							c31.6,18.3,63.1,36.6,94.6,54.8c0.5,0.2,0.8,0.5,1.3,0.6c5.2,2.2,7.3,6.7,7.8,11.9c0.5,4.8,0.3,9.7,0.3,14.5
							c0.6,38.2,1.1,76.3,1.7,114.5c0.2,8.9,0.2,17.8,0.5,26.7c0.2,6.2-2.1,10.8-7.3,14.3c-10.8,7-21.8,13.5-32.7,20
							c-14.1,8.3-28.3,16.4-42.4,24.6c-1.4,0.8-2.9,1.6-4.6,1.7c-2.7,0.2-4.5-0.8-5.4-3.3c-1-2.1-1-4.3-1-6.5
							c0-13,0.2-26.1,0.2-38.9c0-37.7,0-75.2-0.2-112.9c0-6.4,2.1-11.8,6-16.7c2.5-3.2,5.7-5.7,9.2-7.9c14.1-8.9,28.8-16.9,43.6-25
							c2.7-1.6,5.6-3,8.3-4.5c1.4-0.8,2.7-1.6,3.8-2.9c2.1-2.2,1.9-4.3-0.5-6c-1-0.6-1.9-1.3-2.9-1.9c-22.3-13.7-45-26.7-67.6-39.9
							c-14.8-8.6-29.7-17.2-44.7-25.8c-4.6-2.5-9.4-3.8-14.8-2.9c-2.2,0.3-4.1,1.4-6.2,2.5C223.9,35.7,209,44.3,194.2,53
							c-21.9,12.9-44,25.9-66,38.9c-1,0.6-2.1,1.1-2.9,2.2c-1.9,2.7-1.7,5.9,0.5,8.4c1.4,1.7,3.5,2.7,5.4,3.8
							c16.1,9.2,32.1,18.6,48.3,27.7c19.2,11,38.3,21.9,57.7,32.7c7.8,4.3,15.9,4.3,23.7,0c9.5-5.4,19.2-10.5,28.9-15.6
							c0.3,0,0.6,0,1.1,0C290.5,151.7,290.2,152.2,289.7,152.7C289.9,152.7,289.7,152.7,289.7,152.7z"/>
					</g>
				</g>
			</g>
            <g>
				<g>
					<g>
						<path class="st1" d="M249.4,128.5c-1.7-0.2-3.7-0.3-5.2-1.3c-15.1-8.6-30.4-17.2-45.5-25.8c-0.6-0.3-1.3-0.8-1.7-1.3
							c-1.3-1.3-1.3-2.9,0.2-4.1c0.5-0.5,1.3-0.8,1.9-1.3c14.3-8.9,28.8-17.6,43.1-26.5c4.3-2.7,8.4-2.7,12.9-0.2
							c15.1,9.1,30.2,18.1,45.3,27.2c4.1,2.4,4.1,4.8-0.2,7c-15.1,8.3-30.2,16.7-45.3,25C253,128.1,251.3,128.4,249.4,128.5z"/>
					</g>
				</g>
			</g>
		</g>
        <g>
			<g>
				<g>
					<path class="st0" d="M0.7,416.1l10.2-1c0.6,3.3,1.9,5.9,3.7,7.5c1.9,1.6,4.5,2.4,7.6,2.4c3.3,0,5.9-0.6,7.6-2.1
						c1.7-1.4,2.5-3,2.5-4.9c0-1.3-0.3-2.2-1.1-3.2c-0.8-0.8-1.9-1.6-3.8-2.2c-1.3-0.5-4-1.1-8.4-2.2c-5.6-1.4-9.5-3-11.8-5.1
						c-3.2-2.9-4.8-6.4-4.8-10.3c0-2.7,0.8-5.1,2.2-7.3c1.4-2.2,3.7-4,6.5-5.2c2.9-1.3,6.2-1.7,10.2-1.7c6.5,0,11.4,1.4,14.6,4.3
						c3.2,2.9,4.9,6.7,5.1,11.4l-10.5,0.5c-0.5-2.7-1.4-4.6-2.9-5.7c-1.4-1.1-3.7-1.7-6.7-1.7c-3,0-5.4,0.6-7.2,1.9
						c-1.1,0.8-1.6,1.9-1.6,3.2s0.5,2.2,1.6,3.2c1.3,1.1,4.5,2.2,9.5,3.5c5.1,1.3,8.9,2.4,11.3,3.7c2.4,1.3,4.3,3,5.7,5.2
						s2.1,4.9,2.1,8.3c0,3-0.8,5.7-2.5,8.3c-1.6,2.5-4,4.5-7,5.7c-3,1.3-6.8,1.9-11.3,1.9c-6.5,0-11.6-1.6-15.1-4.6
						C3.4,426.3,1.4,422,0.7,416.1z"/>
				</g>
			</g>
            <g>
				<g>
					<path class="st0" d="M70.5,381.3H81v28c0,4.5,0.2,7.3,0.3,8.6c0.5,2.1,1.6,3.8,3.2,5.1c1.6,1.3,4,1.9,6.8,1.9
						c3,0,5.2-0.6,6.7-1.7c1.4-1.3,2.4-2.7,2.7-4.5c0.3-1.7,0.5-4.8,0.5-8.7v-28.6h10.5v27.2c0,6.2-0.3,10.7-0.8,13.2
						c-0.5,2.5-1.6,4.8-3.2,6.5c-1.6,1.7-3.5,3.2-6,4.3c-2.5,1.1-5.9,1.6-10,1.6c-4.9,0-8.7-0.6-11.3-1.7c-2.5-1.1-4.6-2.5-6-4.5
						c-1.4-1.7-2.4-3.7-2.9-5.7c-0.6-3-1-7.3-1-13.2L70.5,381.3L70.5,381.3z"/>
				</g>
			</g>
            <g>
				<g>
					<path class="st0" d="M139.2,416.1l10.2-1c0.6,3.3,1.9,5.9,3.7,7.5c1.9,1.6,4.5,2.4,7.6,2.4c3.3,0,5.9-0.6,7.6-2.1
						c1.7-1.4,2.5-3,2.5-4.9c0-1.3-0.3-2.2-1.1-3.2c-0.8-0.8-1.9-1.6-3.8-2.2c-1.3-0.5-4-1.1-8.4-2.2c-5.6-1.4-9.5-3-11.8-5.1
						c-3.2-2.9-4.8-6.4-4.8-10.3c0-2.7,0.8-5.1,2.2-7.3c1.4-2.2,3.7-4,6.5-5.2c2.9-1.3,6.2-1.7,10.2-1.7c6.5,0,11.4,1.4,14.6,4.3
						c3.2,2.9,4.9,6.7,5.1,11.4l-10.5,0.5c-0.5-2.7-1.4-4.6-2.9-5.7c-1.4-1.1-3.7-1.7-6.7-1.7c-3,0-5.4,0.6-7.2,1.9
						c-1.1,0.8-1.6,1.9-1.6,3.2s0.5,2.2,1.6,3.2c1.3,1.1,4.5,2.2,9.5,3.5c5.1,1.3,8.9,2.4,11.3,3.7c2.4,1.3,4.3,3,5.7,5.2
						s2.1,4.9,2.1,8.3c0,3-0.8,5.7-2.5,8.3c-1.6,2.5-4,4.5-7,5.7c-3,1.3-6.8,1.9-11.3,1.9c-6.5,0-11.6-1.6-15.1-4.6
						C141.9,426.3,139.8,422,139.2,416.1z"/>
				</g>
			</g>
            <g>
				<g>
					<path class="st0" d="M209,433v-51.7h10.5v20.3H240v-20.3h10.5V433H240v-22.6h-20.5V433H209z"/>
				</g>
			</g>
            <g>
				<g>
					<path class="st0" d="M279.9,433v-51.7h10.5V433H279.9z"/>
				</g>
			</g>
            <g>
				<g>
					<path class="st0" d="M319.3,433v-51.7H336c6.4,0,10.5,0.3,12.4,0.8c3,0.8,5.4,2.4,7.5,5.1c2.1,2.7,3,5.9,3,10
						c0,3.2-0.6,5.9-1.7,7.9c-1.1,2.2-2.5,3.8-4.5,5.1c-1.9,1.3-3.7,2.1-5.4,2.4c-2.5,0.5-6,0.8-10.8,0.8h-6.8V433H319.3z
						 M329.8,390v14.6h5.7c4.1,0,6.8-0.3,8.3-0.8c1.4-0.5,2.5-1.4,3.3-2.5c0.8-1.1,1.1-2.5,1.1-4c0-1.9-0.5-3.5-1.6-4.6
						c-1.1-1.3-2.5-1.9-4.1-2.2c-1.3-0.2-3.8-0.3-7.5-0.3h-5.2L329.8,390L329.8,390z"/>
				</g>
			</g>
            <g>
				<g>
					<path class="st0" d="M427.9,433h-11.4l-4.5-11.8h-20.7L387,433h-11.1l20.2-51.7h11L427.9,433z M408.6,412.4l-7.2-19.2l-7,19.2
						H408.6z"/>
				</g>
			</g>
            <g>
				<g>
					<path class="st0" d="M452.5,433v-51.7H463v22.9l21.1-22.9h14l-19.4,20.2l20.5,31.6h-13.5l-14.1-24.3l-8.4,8.6V433H452.5z"/>
				</g>
			</g>
		</g>
        <g>
			<path class="st0" d="M39.1,485.6v-23.4h8.1c3.7,0,6.7,1.1,8.9,3.3c2.4,2.2,3.5,4.9,3.5,8.4c0,3.3-1.1,6-3.5,8.4
				c-2.4,2.2-5.2,3.3-8.9,3.3h-8.1V485.6z M41.7,483.2h5.4c2.9,0,5.2-0.8,7-2.5c1.7-1.7,2.7-4,2.7-6.7c0-2.7-1-4.9-2.7-6.7
				c-1.7-1.7-4.1-2.7-7-2.7h-5.4V483.2z"/>
            <path class="st0" d="M65.2,485.6v-23.4h16.9v2.4H67.7v7.9h12.7v2.4H67.7v8.1h14.5v2.4h-17V485.6z"/>
            <path class="st0" d="M87.6,485.6v-23.4h2.7v21h13.2v2.4H87.6z"/>
            <path class="st0" d="M108.4,485.6v-23.4h2.7v23.4H108.4z"/>
            <path class="st0" d="M125.9,485.7l-10-23.5h2.9l8.3,20.2l8.4-20.2h2.9l-10,23.5H125.9z"/>
            <path class="st0" d="M142.9,485.6v-23.4h16.9v2.4h-14.3v7.9h12.7v2.4h-12.7v8.1h14.5v2.4h-17V485.6z"/>
            <path class="st0" d="M165.4,485.6v-23.4h10c2.9,0,5.1,0.8,6.7,2.4c1.3,1.3,1.7,2.7,1.7,4.6c0,1.9-0.6,3.3-1.7,4.6
				c-1.1,1.1-2.7,1.9-4.6,2.2l7.2,9.5h-3.2l-6.8-9.1h-6.7v9.1L165.4,485.6L165.4,485.6z M168.1,474.1h7.2c1.7,0,3.2-0.5,4.3-1.3
				c1.1-0.8,1.6-2.1,1.6-3.5c0-1.4-0.5-2.5-1.6-3.3c-1.1-0.8-2.5-1.3-4.5-1.3h-7.2v9.4H168.1z"/>
            <path class="st0" d="M196.8,485.6v-9.2l-9.7-14.1h3.2l7.9,11.8l7.9-11.8h3l-9.7,14.1v9.2H196.8z"/>
            <path class="st0" d="M240.2,486.1l-3.7-3.8c-2.2,2.4-4.8,3.7-7.6,3.7c-2.1,0-4-0.6-5.2-1.9c-1.4-1.3-2.1-2.9-2.1-4.8
				c0-3,1.9-5.2,5.6-6.7c-0.8-1-1.4-1.9-1.7-2.5c-0.3-0.8-0.5-1.6-0.5-2.5c0-1.6,0.6-2.9,1.7-4c1.1-1.1,2.7-1.6,4.5-1.6
				c1.6,0,3,0.5,4.1,1.6c1.1,1.1,1.6,2.2,1.6,3.8c0,2.7-1.9,4.8-5.6,6l5.4,5.4c1-1.4,1.9-3.2,2.9-5.2l2.2,1
				c-1.1,2.5-2.2,4.5-3.3,5.9l4.1,4.1L240.2,486.1z M229.1,483.7c2.1,0,4-1,5.9-3l-6.2-6.5c-1.4,0.6-2.5,1.3-3.3,2.2
				c-0.8,1-1.1,1.9-1.1,2.9c0,1.3,0.5,2.4,1.4,3.2C226.6,483.2,227.7,483.7,229.1,483.7z M229.7,471.7c3-1,4.5-2.5,4.5-4.5
				c0-1-0.3-1.7-1-2.4c-0.6-0.6-1.4-1-2.4-1c-1.1,0-1.9,0.3-2.5,1c-0.6,0.6-1,1.4-1,2.5c0,0.6,0.2,1.3,0.5,1.9
				S228.9,470.8,229.7,471.7z"/>
            <path class="st0" d="M262.8,485.6v-21H255v-2.4h18.3v2.4h-7.8v21H262.8z"/>
            <path class="st0" d="M276.3,485.6L287,462h2.5l10.7,23.5h-2.9l-2.7-6.2h-12.7l-2.7,6.2H276.3z M282.8,477h10.7l-5.2-11.9
				L282.8,477z"/>
            <path class="st0" d="M304.6,485.6v-23.4h2.7v14l13.4-14h3.3l-10,10.2l10.5,13.2h-3.2l-8.9-11.3l-4.9,5.1v6.2L304.6,485.6
				L304.6,485.6z"/>
            <path class="st0" d="M328.6,485.6v-23.4h16.9v2.4h-14.3v7.9h12.7v2.4h-12.7v8.1h14.5v2.4h-17V485.6z"/>
            <path class="st0" d="M349.4,485.6l10.7-23.5h2.5l10.7,23.5h-2.9l-2.7-6.2H355l-2.7,6.2H349.4z M355.9,477h10.7l-5.2-11.9
				L355.9,477z"/>
            <path class="st0" d="M384.4,485.7l-8.4-23.5h2.9l6.7,19.4l6.4-19.6h2.2l6.4,19.6l6.7-19.4h2.7l-8.4,23.5h-2.2l-6.4-18.9
				l-6.5,18.9H384.4z"/>
            <path class="st0" d="M412.9,485.6l10.7-23.5h2.5l10.7,23.5h-2.9l-2.7-6.2h-12.7l-2.7,6.2H412.9z M419.4,477H430l-5.2-11.9
				L419.4,477z"/>
            <path class="st0" d="M448.5,485.6v-9.2l-9.7-14.1h3.2l7.9,11.8l7.9-11.8h3l-9.7,14.1v9.2H448.5z"/>
		</g>
	</g>
</g>
</svg>
